<svg width="86" height="90" viewBox="0 0 86 90" fill="none" xmlns="http://www.w3.org/2000/svg">
<path fill-rule="evenodd" clip-rule="evenodd" d="M0.128667 32.5181C1.44267 20.3441 13.2147 5.29713 24.6107 1.22513C29.2757 -0.441874 29.4027 -0.439874 35.6977 1.42913C42.9367 3.57913 48.0157 6.96413 50.8547 11.5311C52.9737 14.9401 53.2027 16.3671 53.0077 24.9631L52.7907 34.5821L58.0077 35.6321C71.5137 38.3491 80.4187 43.7591 83.8607 51.3361C87.0127 58.2751 86.5457 59.4811 76.9967 69.0751C72.1957 73.8991 67.9797 77.8451 67.6287 77.8451C67.2767 77.8451 66.7407 75.9921 66.4367 73.7271C65.7067 68.2831 61.3527 63.0491 54.6177 59.5171L49.2257 56.6891L48.3317 63.4841C47.4947 69.8471 48.4237 80.6341 50.1827 84.9661C51.2197 87.5201 48.6057 87.8781 36.9627 86.7741C25.9527 85.7301 21.1197 86.0891 14.4287 88.4501L10.6047 89.7991L9.05367 86.0881C6.39767 79.7301 7.62467 67.1431 11.9207 56.6841L15.4777 48.0231L9.54067 45.8581C1.87667 43.0631 -0.627333 39.5151 0.128667 32.5181ZM35.1437 10.8451C34.9137 10.8451 34.7257 9.68713 34.7257 8.27213C34.7257 4.54413 38.1157 5.40313 38.5557 9.24113C38.8237 11.5801 38.5737 12.0011 37.2237 11.4831C36.3097 11.1321 35.3737 10.8451 35.1437 10.8451ZM46.2607 15.8451C44.6307 15.8451 42.4387 12.4651 43.4277 11.4761C44.5417 10.3621 45.6287 10.7961 46.6907 12.7791C48.0677 15.3531 47.9997 15.8451 46.2607 15.8451ZM33.9417 19.0001C33.2357 18.5521 32.9357 17.4621 33.2747 16.5781C34.0837 14.4691 36.7257 15.5211 36.7257 17.9521C36.7257 19.9951 35.9627 20.2821 33.9417 19.0001ZM16.8487 32.3011C16.0047 31.4581 20.4087 23.2761 23.7627 19.4561C25.5057 17.4701 27.3667 15.8451 27.8967 15.8451C29.0317 15.8451 28.5137 17.6411 24.7837 26.6501C22.3897 32.4321 21.6937 33.3081 19.6807 33.0731C18.3987 32.9241 17.1237 32.5771 16.8487 32.3011ZM45.1437 22.8451C44.9137 22.8451 44.7257 21.9291 44.7257 20.8101C44.7257 19.0851 45.0307 18.9381 46.7257 19.8451C49.1357 21.1351 49.5097 24.3601 47.1437 23.4521C46.2737 23.1181 45.3737 22.8451 45.1437 22.8451ZM31.3957 27.2721C29.6357 26.5971 29.2817 25.6221 30.3927 24.5121C31.3037 23.6001 34.7297 23.6661 34.7107 24.5951C34.6727 26.4431 32.9217 27.8571 31.3957 27.2721ZM48.2797 31.7581C47.3157 33.3181 44.7257 31.8461 44.7257 29.7381C44.7257 28.6971 45.1207 27.8451 45.6037 27.8451C47.0207 27.8451 48.9527 30.6691 48.2797 31.7581ZM28.3957 34.2721C26.6357 33.5971 26.2817 32.6221 27.3927 31.5121C28.3087 30.5961 30.5017 30.6731 31.1007 31.6431C31.9927 33.0861 30.0997 34.9261 28.3957 34.2721ZM44.3127 39.9171C43.4517 39.2031 42.9947 38.2191 43.2957 37.7321C43.9777 36.6281 46.4377 36.5711 47.1007 37.6431C47.3717 38.0821 47.2077 39.0651 46.7357 39.8281C46.0297 40.9721 45.6027 40.9881 44.3127 39.9171ZM27.4757 41.1351C25.9377 43.1941 23.1397 41.8151 24.0487 39.4461C24.7277 37.6751 25.5987 37.4781 27.4757 38.6691C28.4757 39.3041 28.4757 39.7971 27.4757 41.1351ZM56.6037 40.8451C54.7167 40.8451 54.1507 39.7531 55.3927 38.5121C55.7587 38.1451 57.1637 37.8451 58.5147 37.8451C60.5847 37.8451 60.7747 38.0811 59.7257 39.3451C59.0407 40.1701 57.6357 40.8451 56.6037 40.8451ZM66.9337 42.7341C64.1627 44.2171 61.2327 43.1441 62.8227 41.2281C64.1377 39.6431 65.6257 39.4951 67.6107 40.7531C68.7227 41.4571 68.5887 41.8481 66.9337 42.7341ZM43.3077 49.2381C41.7187 48.6281 41.1547 45.7491 42.3837 44.5201C43.4107 43.4931 45.7257 45.8811 45.7257 47.9671C45.7257 50.0421 45.5897 50.1141 43.3077 49.2381ZM70.1657 46.7951C68.9377 45.7761 68.8897 45.3541 69.9287 44.6851C71.6467 43.5761 73.9577 44.0381 74.4757 45.5941C75.0817 47.4151 71.9607 48.2851 70.1657 46.7951ZM21.6627 49.8111C20.5857 49.2351 20.0407 48.1891 20.3697 47.3301C21.0017 45.6851 23.2937 45.3381 24.1697 46.7551C24.4787 47.2551 24.4607 48.3721 24.1287 49.2361C23.6707 50.4291 23.0767 50.5681 21.6627 49.8111ZM75.4167 51.9361C74.5177 51.0371 74.5917 50.5411 75.7337 49.8201C77.5077 48.7001 78.9507 49.0211 79.4967 50.6571C80.0557 52.3361 76.8287 53.3481 75.4167 51.9361ZM53.0647 53.4221C51.8307 52.9481 51.7507 52.5191 52.6857 51.3931C53.8717 49.9651 56.7257 50.3181 56.7257 51.8931C56.7257 53.2451 54.7517 54.0691 53.0647 53.4221ZM42.7257 57.8451C41.2587 57.8451 40.7257 57.1781 40.7257 55.3451C40.7257 52.6231 40.8107 52.5571 43.1437 53.4521C45.4907 54.3521 45.1577 57.8451 42.7257 57.8451ZM59.2637 56.8761C58.0857 55.8991 57.9757 55.2481 58.8187 54.2331C59.6607 53.2181 60.4307 53.1521 61.9477 53.9641C63.7737 54.9411 63.8147 55.1851 62.3927 56.6071C61.0967 57.9031 60.5567 57.9491 59.2637 56.8761ZM18.6187 57.8451C16.7787 57.8451 16.0467 55.8571 17.3927 54.5121C18.2207 53.6831 20.1927 53.6451 20.9897 54.4431C22.1097 55.5621 20.5177 57.8451 18.6187 57.8451ZM80.6137 59.4141C79.0287 60.3941 77.6177 57.6811 78.9057 56.1291C79.4917 55.4231 80.3657 54.8451 80.8477 54.8451C82.1197 54.8451 81.9267 58.6031 80.6137 59.4141ZM67.5257 61.6451C66.0387 63.1321 63.6157 61.2961 64.3917 59.2721C65.0757 57.4901 66.1577 57.4551 67.5797 59.1691C68.3807 60.1341 68.3657 60.8051 67.5257 61.6451ZM15.6187 65.8451C13.7787 65.8451 13.0467 63.8571 14.3927 62.5121C15.2207 61.6831 17.1927 61.6451 17.9897 62.4431C19.1097 63.5621 17.5177 65.8451 15.6187 65.8451ZM41.7957 66.8451C40.2387 66.8451 39.7257 66.2071 39.7257 64.2721C39.7257 60.9891 43.0707 61.2811 43.5457 64.6051C43.7877 66.3061 43.3667 66.8451 41.7957 66.8451ZM71.8587 68.1121C70.3437 69.6271 68.2277 67.5841 69.0617 65.4121C69.3927 64.5501 70.1407 63.8451 70.7257 63.8451C72.3457 63.8451 73.1387 66.8321 71.8587 68.1121ZM13.7957 74.8451C11.7657 74.8451 10.8727 72.0311 12.4137 70.4911C13.6057 69.2981 15.2137 70.4181 15.5457 72.6731C15.7857 74.3061 15.3507 74.8451 13.7957 74.8451ZM41.7987 74.8451C40.3677 74.8451 39.7257 74.2031 39.7257 72.7721C39.7257 71.3411 40.2647 70.8021 41.4647 71.0331C44.0707 71.5351 44.3617 74.8451 41.7987 74.8451ZM14.2737 83.8451C12.7577 83.8451 11.4337 81.1271 12.2817 79.7551C13.1807 78.3001 15.4577 78.7031 16.1217 80.4351C16.8657 82.3741 16.0687 83.8451 14.2737 83.8451ZM42.7987 82.8451C41.3677 82.8451 40.7257 82.2031 40.7257 80.7721C40.7257 79.3411 41.2647 78.8021 42.4647 79.0331C45.0707 79.5351 45.3617 82.8451 42.7987 82.8451Z" fill="black"/>
</svg>
